<svg xmlns="http://www.w3.org/2000/svg" width="128" height="128" viewBox="0 0 128 128"><polygon points="46.2,114.1 46.2,43.8 46.2,113.2" fill="#8c6225" stroke="#8c6225" stroke-width="0.6" stroke-linejoin="round"/><polygon points="81.8,113.2 81.8,44.6 81.8,114.1" fill="#74521e" stroke="#74521e" stroke-width="0.6" stroke-linejoin="round"/><polygon points="46.2,114.1 46.5,114.9 46.2,44.6" fill="#936727" stroke="#936727" stroke-width="0.6" stroke-linejoin="round"/><polygon points="81.5,114.9 81.8,114.1 81.5,45.5" fill="#74521e" stroke="#74521e" stroke-width="0.6" stroke-linejoin="round"/><polygon points="46.5,114.9 46.9,115.8 46.5,45.5" fill="#9a6c29" stroke="#9a6c29" stroke-width="0.6" stroke-linejoin="round"/><polygon points="81.1,115.8 81.5,114.9 81.1,46.3" fill="#74521e" stroke="#74521e" stroke-width="0.6" stroke-linejoin="round"/><polygon points="46.9,115.8 47.5,116.6 46.9,46.3" fill="#a1712a" stroke="#a1712a" stroke-width="0.6" stroke-linejoin="round"/><polygon points="80.5,116.6 81.1,115.8 80.5,47.1" fill="#7b5620" stroke="#7b5620" stroke-width="0.6" stroke-linejoin="round"/><polygon points="47.5,116.6 48.3,117.4 47.5,47.1" fill="#a7752c" stroke="#a7752c" stroke-width="0.6" stroke-linejoin="round"/><polygon points="79.7,117.4 80.5,116.6 79.7,47.9" fill="#835c22" stroke="#835c22" stroke-width="0.6" stroke-linejoin="round"/><polygon points="48.3,117.4 49.2,118.1 48.3,47.9" fill="#ad792d" stroke="#ad792d" stroke-width="0.6" stroke-linejoin="round"/><polygon points="78.8,118.1 79.7,117.4 78.8,48.7" fill="#8a6124" stroke="#8a6124" stroke-width="0.6" stroke-linejoin="round"/><polygon points="49.2,118.1 50.2,118.8 49.2,48.7" fill="#b27d2f" stroke="#b27d2f" stroke-width="0.6" stroke-linejoin="round"/><polygon points="77.8,118.8 78.8,118.1 77.8,49.4" fill="#926626" stroke="#926626" stroke-width="0.6" stroke-linejoin="round"/><polygon points="50.2,118.8 51.4,119.4 50.2,49.4" fill="#b78030" stroke="#b78030" stroke-width="0.6" stroke-linejoin="round"/><polygon points="76.6,119.4 77.8,118.8 76.6,50.0" fill="#996b28" stroke="#996b28" stroke-width="0.6" stroke-linejoin="round"/><polygon points="51.4,119.4 52.7,120.0 51.4,50.0" fill="#ba8331" stroke="#ba8331" stroke-width="0.6" stroke-linejoin="round"/><polygon points="75.3,120.0 76.6,119.4 75.3,50.6" fill="#9f702a" stroke="#9f702a" stroke-width="0.6" stroke-linejoin="round"/><polygon points="52.7,120.0 54.1,120.5 52.7,50.6" fill="#be8532" stroke="#be8532" stroke-width="0.6" stroke-linejoin="round"/><polygon points="73.9,120.5 75.3,120.0 73.9,51.1" fill="#a6742c" stroke="#a6742c" stroke-width="0.6" stroke-linejoin="round"/><polygon points="54.1,120.5 55.6,121.0 54.1,51.1" fill="#c08733" stroke="#c08733" stroke-width="0.6" stroke-linejoin="round"/><polygon points="72.4,121.0 73.9,120.5 72.4,51.5" fill="#ab782d" stroke="#ab782d" stroke-width="0.6" stroke-linejoin="round"/><polygon points="81.8,113.2 81.8,43.8 81.8,44.6" fill="#74521e" stroke="#74521e" stroke-width="0.6" stroke-linejoin="round"/><polygon points="55.6,121.0 57.2,121.3 55.6,51.5" fill="#c28833" stroke="#c28833" stroke-width="0.6" stroke-linejoin="round"/><polygon points="46.2,114.1 46.2,44.6 46.2,43.8" fill="#8c6225" stroke="#8c6225" stroke-width="0.6" stroke-linejoin="round"/><polygon points="70.8,121.3 72.4,121.0 70.8,51.9" fill="#b17c2e" stroke="#b17c2e" stroke-width="0.6" stroke-linejoin="round"/><polygon points="57.2,121.3 58.8,121.6 57.2,51.9" fill="#c38933" stroke="#c38933" stroke-width="0.6" stroke-linejoin="round"/><polygon points="69.2,121.6 70.8,121.3 69.2,52.2" fill="#b68030" stroke="#b68030" stroke-width="0.6" stroke-linejoin="round"/><polygon points="58.8,121.6 60.5,121.8 58.8,52.2" fill="#c38933" stroke="#c38933" stroke-width="0.6" stroke-linejoin="round"/><polygon points="67.5,121.8 69.2,121.6 67.5,52.4" fill="#ba8231" stroke="#ba8231" stroke-width="0.6" stroke-linejoin="round"/><polygon points="81.8,114.1 81.8,44.6 81.5,45.5" fill="#74521e" stroke="#74521e" stroke-width="0.6" stroke-linejoin="round"/><polygon points="60.5,121.8 62.3,122.0 60.5,52.4" fill="#c38933" stroke="#c38933" stroke-width="0.6" stroke-linejoin="round"/><polygon points="65.7,122.0 67.5,121.8 65.7,52.5" fill="#bd8532" stroke="#bd8532" stroke-width="0.6" stroke-linejoin="round"/><polygon points="62.3,122.0 64.0,122.0 62.3,52.5" fill="#c28833" stroke="#c28833" stroke-width="0.6" stroke-linejoin="round"/><polygon points="64.0,122.0 65.7,122.0 64.0,52.6" fill="#c08732" stroke="#c08732" stroke-width="0.6" stroke-linejoin="round"/><polygon points="46.5,114.9 46.5,45.5 46.2,44.6" fill="#936727" stroke="#936727" stroke-width="0.6" stroke-linejoin="round"/><polygon points="81.5,114.9 81.5,45.5 81.1,46.3" fill="#74521e" stroke="#74521e" stroke-width="0.6" stroke-linejoin="round"/><polygon points="46.9,115.8 46.9,46.3 46.5,45.5" fill="#9a6c29" stroke="#9a6c29" stroke-width="0.6" stroke-linejoin="round"/><polygon points="81.1,115.8 81.1,46.3 80.5,47.1" fill="#7b5620" stroke="#7b5620" stroke-width="0.6" stroke-linejoin="round"/><polygon points="47.5,116.6 47.5,47.1 46.9,46.3" fill="#a1712a" stroke="#a1712a" stroke-width="0.6" stroke-linejoin="round"/><polygon points="80.5,116.6 80.5,47.1 79.7,47.9" fill="#835c22" stroke="#835c22" stroke-width="0.6" stroke-linejoin="round"/><polygon points="96.2,17.6 72.6,6.0 40.4,10.2" fill="#e6a23d" stroke="#e6a23d" stroke-width="0.6" stroke-linejoin="round"/><polygon points="48.3,117.4 48.3,47.9 47.5,47.1" fill="#a7752c" stroke="#a7752c" stroke-width="0.6" stroke-linejoin="round"/><polygon points="79.7,117.4 79.7,47.9 78.8,48.7" fill="#8a6124" stroke="#8a6124" stroke-width="0.6" stroke-linejoin="round"/><polygon points="49.2,118.1 49.2,48.7 48.3,47.9" fill="#ad792d" stroke="#ad792d" stroke-width="0.6" stroke-linejoin="round"/><polygon points="78.8,118.1 78.8,48.7 77.8,49.4" fill="#926626" stroke="#926626" stroke-width="0.6" stroke-linejoin="round"/><polygon points="50.2,118.8 50.2,49.4 49.2,48.7" fill="#b27d2f" stroke="#b27d2f" stroke-width="0.6" stroke-linejoin="round"/><polygon points="77.8,118.8 77.8,49.4 76.6,50.0" fill="#996b28" stroke="#996b28" stroke-width="0.6" stroke-linejoin="round"/><polygon points="51.4,119.4 51.4,50.0 50.2,49.4" fill="#b78030" stroke="#b78030" stroke-width="0.6" stroke-linejoin="round"/><polygon points="76.6,119.4 76.6,50.0 75.3,50.6" fill="#9f702a" stroke="#9f702a" stroke-width="0.6" stroke-linejoin="round"/><polygon points="52.7,120.0 52.7,50.6 51.4,50.0" fill="#ba8331" stroke="#ba8331" stroke-width="0.6" stroke-linejoin="round"/><polygon points="75.3,120.0 75.3,50.6 73.9,51.1" fill="#a6742c" stroke="#a6742c" stroke-width="0.6" stroke-linejoin="round"/><polygon points="54.1,120.5 54.1,51.1 52.7,50.6" fill="#be8532" stroke="#be8532" stroke-width="0.6" stroke-linejoin="round"/><polygon points="73.9,120.5 73.9,51.1 72.4,51.5" fill="#ab782d" stroke="#ab782d" stroke-width="0.6" stroke-linejoin="round"/><polygon points="55.6,121.0 55.6,51.5 54.1,51.1" fill="#c08733" stroke="#c08733" stroke-width="0.6" stroke-linejoin="round"/><polygon points="72.4,121.0 72.4,51.5 70.8,51.9" fill="#b17c2e" stroke="#b17c2e" stroke-width="0.6" stroke-linejoin="round"/><polygon points="57.2,121.3 57.2,51.9 55.6,51.5" fill="#c28833" stroke="#c28833" stroke-width="0.6" stroke-linejoin="round"/><polygon points="70.8,121.3 70.8,51.9 69.2,52.2" fill="#b68030" stroke="#b68030" stroke-width="0.6" stroke-linejoin="round"/><polygon points="58.8,121.6 58.8,52.2 57.2,51.9" fill="#c38933" stroke="#c38933" stroke-width="0.6" stroke-linejoin="round"/><polygon points="69.2,121.6 69.2,52.2 67.5,52.4" fill="#ba8231" stroke="#ba8231" stroke-width="0.6" stroke-linejoin="round"/><polygon points="60.5,121.8 60.5,52.4 58.8,52.2" fill="#c38933" stroke="#c38933" stroke-width="0.6" stroke-linejoin="round"/><polygon points="67.5,121.8 67.5,52.4 65.7,52.5" fill="#bd8532" stroke="#bd8532" stroke-width="0.6" stroke-linejoin="round"/><polygon points="62.3,122.0 62.3,52.5 60.5,52.4" fill="#c38933" stroke="#c38933" stroke-width="0.6" stroke-linejoin="round"/><polygon points="65.7,122.0 65.7,52.5 64.0,52.6" fill="#c08732" stroke="#c08732" stroke-width="0.6" stroke-linejoin="round"/><polygon points="64.0,122.0 64.0,52.6 62.3,52.5" fill="#c28833" stroke="#c28833" stroke-width="0.6" stroke-linejoin="round"/><polygon points="96.2,39.5 96.2,17.6 87.6,33.5" fill="#74521f" stroke="#74521f" stroke-width="0.6" stroke-linejoin="round"/><polygon points="55.4,37.7 96.2,17.6 40.4,10.2" fill="#e6a23d" stroke="#e6a23d" stroke-width="0.6" stroke-linejoin="round"/><polygon points="96.2,39.5 87.6,33.5 87.6,55.4" fill="#74521f" stroke="#74521f" stroke-width="0.6" stroke-linejoin="round"/><polygon points="55.4,37.7 40.4,10.2 31.8,26.1" fill="#e6a23d" stroke="#e6a23d" stroke-width="0.6" stroke-linejoin="round"/><polygon points="31.8,48.0 55.4,59.6 31.8,26.1" fill="#b98231" stroke="#b98231" stroke-width="0.6" stroke-linejoin="round"/><polygon points="55.4,37.7 87.6,33.5 96.2,17.6" fill="#e6a23d" stroke="#e6a23d" stroke-width="0.6" stroke-linejoin="round"/><polygon points="31.8,26.1 55.4,59.6 55.4,37.7" fill="#b98231" stroke="#b98231" stroke-width="0.6" stroke-linejoin="round"/><polygon points="55.4,59.6 87.6,55.4 55.4,37.7" fill="#b98231" stroke="#b98231" stroke-width="0.6" stroke-linejoin="round"/><polygon points="55.4,37.7 87.6,55.4 87.6,33.5" fill="#b98231" stroke="#b98231" stroke-width="0.6" stroke-linejoin="round"/></svg>
